<?xml version="1.0" standalone="no"?>
<!DOCTYPE svg PUBLIC "-//W3C//DTD SVG 20010904//EN"
 "http://www.w3.org/TR/2001/REC-SVG-20010904/DTD/svg10.dtd">
<svg version="1.0" xmlns="http://www.w3.org/2000/svg"
 width="1206.000000pt" height="496.000000pt" viewBox="0 0 1206.000000 496.000000"
 preserveAspectRatio="xMidYMid meet">
<metadata>
Created by potrace 1.16, written by Peter Selinger 2001-2019
</metadata>
<g transform="translate(0.000000,496.000000) scale(0.100000,-0.100000)"
fill="#000000" stroke="none">
<path d="M3860 4440 c0 -38 -2 -40 -20 -30 -42 22 -86 -28 -76 -85 9 -44 26
-56 75 -53 l41 3 0 103 c0 61 -4 102 -10 102 -5 0 -10 -18 -10 -40z"/>
<path d="M4030 4445 c0 -34 -2 -37 -23 -31 -52 13 -92 -55 -65 -111 12 -25 19
-28 66 -29 l53 -1 -3 100 c-2 69 -7 102 -15 105 -9 2 -13 -8 -13 -33z"/>
<path d="M7731 4411 c-8 -5 -20 -7 -28 -4 -10 4 -13 -16 -13 -96 0 -61 4 -101
10 -101 6 0 10 15 10 33 0 32 1 33 37 29 46 -6 63 15 63 74 0 33 -5 46 -22 58
-26 18 -37 19 -57 7z"/>
<path d="M9416 4396 c-48 -47 -24 -126 38 -126 42 0 66 26 66 71 0 43 -16 66
-52 74 -21 5 -33 1 -52 -19z"/>
<path d="M9763 4405 c-18 -12 -23 -26 -23 -59 0 -60 18 -81 64 -73 39 6 43 1
23 -28 -11 -14 -22 -17 -45 -12 -33 7 -44 -6 -16 -17 66 -25 94 10 94 116 0
67 -2 77 -17 77 -10 -1 -27 2 -38 6 -12 3 -30 -1 -42 -10z"/>
<path d="M2300 840 c0 -37 -2 -40 -19 -30 -28 14 -38 13 -61 -10 -22 -22 -27
-78 -10 -111 9 -16 20 -19 60 -18 l50 2 0 104 c0 62 -4 103 -10 103 -5 0 -10
-18 -10 -40z"/>
<path d="M2470 840 c0 -37 -2 -40 -19 -30 -24 12 -66 -1 -75 -25 -9 -25 -7
-74 4 -96 9 -16 20 -19 60 -18 l50 2 0 104 c0 62 -4 103 -10 103 -5 0 -10 -18
-10 -40z"/>
<path d="M7035 811 c-11 -5 -26 -6 -32 -4 -10 4 -13 -19 -13 -96 0 -61 4 -101
10 -101 6 0 10 15 10 33 0 32 1 33 37 29 46 -6 63 15 63 74 0 33 -5 46 -22 58
-25 18 -25 18 -53 7z"/>
<path d="M10245 808 c-29 -16 -35 -28 -35 -69 0 -44 25 -69 68 -69 77 0 83
123 7 144 -11 3 -29 0 -40 -6z"/>
<path d="M10575 796 c-29 -29 -33 -71 -9 -105 13 -18 24 -22 51 -19 29 4 34 1
31 -16 -3 -18 -10 -21 -45 -20 -35 1 -41 -2 -32 -13 15 -18 64 -16 83 3 12 11
16 36 16 99 0 73 -2 84 -17 83 -10 0 -26 3 -35 7 -12 4 -25 -1 -43 -19z"/>
</g>
</svg>
